<svg width="1920" height="711" viewBox="0 0 1920 711" fill="none" xmlns="http://www.w3.org/2000/svg">
<g clip-path="url(#clip0_460_211)">
<path d="M1228.26 177.308C1230.78 177.308 1233.12 176.003 1234.44 173.859C1236.97 169.764 1241.78 162.209 1248.79 152.284C1255.5 142.801 1265.73 152.204 1261.26 160.962C1256.79 169.73 1243.9 179.418 1244.4 185.815C1244.91 192.224 1256.03 197.272 1264.8 178.737C1273.57 160.202 1285.08 158.035 1283.05 145.807C1281.03 133.578 1271.1 133.091 1270.72 124.47C1270.28 114.294 1282.16 108.861 1287.39 115.622C1290.14 119.183 1290.09 127.249 1299.7 138.207C1309.32 149.164 1323.31 130.618 1316.57 123.539C1309.83 116.461 1304.84 109.212 1303.76 102.974C1301.39 89.4861 1318.93 84.7672 1321.12 95.725C1324.74 113.818 1340.31 114.283 1335.7 128.417C1330.92 143.039 1329.88 152.681 1308.13 162.289C1286.38 171.897 1286.22 180.155 1275.43 195.151C1264.64 210.147 1277.28 220.595 1290.43 210.828C1303.58 201.05 1306.91 184.307 1310.87 176.786C1316.72 165.658 1330.13 167.008 1326.26 182.344C1323.18 194.516 1301.47 214.526 1308.31 231.723C1312.86 243.18 1322.57 237.905 1326.77 233.367C1333.6 225.994 1336.63 216.386 1335.28 202.229C1333.76 186.235 1344.69 176.786 1338.72 168.301C1329.72 155.551 1345.39 148.132 1349.95 135.824C1354.5 123.517 1339.3 102.599 1337.18 93.2294C1333.81 78.4034 1356.06 71.654 1356.73 85.7087C1356.99 91.2557 1353.15 108.35 1361.26 109.473C1374.07 111.243 1365.63 87.0018 1373.28 81.1599C1381.37 74.9663 1392.45 87.898 1381.23 108.759C1370.36 128.962 1378.36 121.566 1376.17 139.261C1374.23 154.916 1364.25 150.56 1357.76 152.068C1344.77 155.097 1349.83 170.774 1363.49 167.745C1377.14 164.716 1384.84 167.427 1382.31 180.064C1379.78 192.701 1385.1 214.469 1372.57 213.494C1358.58 212.405 1368.67 196.422 1365.51 187.925C1361.9 178.261 1349.19 178.295 1347.67 192.962C1346.15 207.629 1347.91 226.629 1347.08 234.921C1345.73 248.409 1326.68 259.185 1313.52 255.397C1300.37 251.608 1294.94 244.223 1294.25 234.479C1293.61 225.563 1283.69 221.457 1275.41 226.709C1267.22 231.893 1259.67 222.795 1255.12 216.216C1250.57 209.637 1235.44 197.533 1228.32 195.741C1213.79 192.077 1201.43 210.646 1218.46 219.256C1230.22 225.2 1235.4 215.717 1243.24 223.306C1251.08 230.895 1235.08 246.163 1222.51 238.982C1204.81 228.875 1196.78 241.319 1199.82 249.918C1203.44 260.172 1222.68 264.267 1239.03 257.518C1255.38 250.78 1256.33 246.22 1262.51 242.102C1268.95 237.803 1278.15 235.466 1281.27 248.942C1283.07 256.735 1287.59 262.566 1298.71 266.275C1309.84 269.984 1332.83 263.916 1346.25 266.275C1359.29 268.566 1355.75 286.535 1340.94 284.357C1322.67 281.668 1303.43 282.201 1291.3 288.52C1279.15 294.838 1279.46 309.142 1270.61 318.875C1262.93 327.326 1247.72 328.483 1246.67 314.678C1245.55 300.011 1265.39 303.073 1270.91 286.319C1274.68 274.839 1277.57 261.783 1269.14 258.913C1260.04 255.816 1256.22 267.75 1254.09 276.439C1251.21 288.225 1239.29 293.579 1232.79 286.149C1223.35 275.361 1206.78 266.763 1198.4 270.642C1190.82 274.147 1183.4 284.799 1188.96 294.237C1195.83 305.898 1210.81 309.426 1220.42 301.088C1230.03 292.751 1242.4 312.443 1226.22 318.852C1210.04 325.261 1186.77 311.173 1175.85 318.478C1170.76 321.892 1164.17 330.763 1172.56 342.56C1180.53 353.745 1195.2 351.896 1204.97 344.818C1214.75 337.739 1228.46 332.578 1236.68 341.766C1243.07 348.901 1259.34 357.874 1279.56 340.008C1299.8 322.142 1302.11 305.773 1314.89 300.998C1334.02 293.84 1359.16 305.478 1369.29 291.628C1376 282.462 1364.62 260.728 1362.59 248.25C1360.56 235.772 1366.36 225.223 1376.64 228.263C1389.67 232.108 1387 259.877 1383.98 282.122C1380.97 304.367 1390.17 308.291 1380.85 315.222C1375.34 319.306 1366.75 318.864 1357.36 316.164C1344.57 312.5 1318.13 306.896 1320.87 322.301C1323.35 336.333 1343.76 329.98 1364.95 331.5C1381.35 332.68 1388.3 344.035 1384.18 355.843C1380.22 367.21 1375.15 372.587 1364.99 370.84C1355.72 369.24 1355.58 363.659 1343.46 350.784C1335.37 342.186 1321.58 344.704 1307.79 350.886C1286.31 360.517 1264.54 347.903 1260.48 397.134C1258.96 415.499 1235.24 412.958 1238.23 396.294C1240.25 385.008 1246.48 368.582 1234.55 361.935C1220.78 354.244 1210.69 376.511 1199.9 370.953C1189.11 365.395 1179 357.636 1169.56 370.953C1160.11 384.27 1163.82 400.151 1173.93 405.971C1184.64 412.119 1189.81 402.182 1202.63 396.873C1215.15 391.689 1222.73 416.52 1223.41 422.339C1224.08 428.158 1224.42 441.067 1217.77 444.448C1212.15 447.295 1201.92 446.297 1195.86 432.14C1189.79 417.983 1167.19 422.589 1161.29 439.218C1153.25 461.905 1167.55 498.477 1185.74 490.786C1200.86 484.388 1195.88 468.224 1213.81 467.43C1227.38 466.817 1229.89 477.571 1236.91 486.01C1245.64 496.503 1265.67 488.132 1265.87 473.748C1266.04 461.021 1251.65 463.233 1245.75 453.035C1238.42 440.353 1258.73 422.407 1276.73 428.09C1292.54 433.093 1312.5 469.188 1281.49 491.784C1250.47 514.381 1240.36 515.05 1223.5 508.312C1206.64 501.574 1186.04 506.417 1185.07 525.418C1183.91 547.969 1193.39 563.646 1217.94 561.32C1235.72 559.63 1229.82 538.826 1254.6 534.016C1271.97 530.647 1294.97 519.78 1303.74 503.593C1312.51 487.417 1320.95 460.351 1319.92 436.859C1317.81 388.411 1288.23 421.398 1281.15 397.588C1276.86 383.181 1309.19 361.583 1328.49 375.661C1347.21 389.307 1350.52 428.624 1338.44 449.734C1328.41 467.26 1343.15 487.973 1329.3 500.371C1307.34 520.007 1335.15 530.625 1344.52 543.034C1356.59 559.006 1348.35 584.053 1329.97 565.347C1311.9 546.948 1302.48 538.724 1295.07 539.223C1284.7 539.926 1278.63 551.202 1268.01 558.915C1257.75 566.357 1225.87 575.726 1230.59 594.432C1234.4 609.53 1241.42 619.218 1265.23 622.995C1281.16 625.525 1293.18 616.291 1289.25 605.549C1287.48 600.682 1273.2 590.382 1280.15 578.245C1285.45 568.988 1297.85 566.107 1307.96 576.226C1318.07 586.333 1323.65 594.432 1317.58 606.059C1311.51 617.686 1299.13 616.404 1298.81 638.127C1298.6 651.615 1303.32 675.618 1331.45 661.903C1344.94 655.335 1356.13 662.039 1363.61 653.225C1367.15 649.051 1365.38 640.464 1354.76 639.579C1345.16 638.774 1332.3 641.349 1329.72 631.843C1327 621.895 1330.78 597.812 1347.25 601C1357.7 603.019 1352.93 624.027 1365.01 622.382C1376.14 620.862 1379.71 606.116 1373.72 595.941C1355.85 565.608 1379.96 568.138 1378.1 547.742C1376.45 529.592 1348.09 530.216 1349.44 513.53C1350.69 498.046 1369.16 506.281 1374.22 496.344C1378.77 487.394 1372.18 481.212 1362.18 471.695C1348.76 458.933 1355.96 445.151 1370.62 444.141C1391.74 442.69 1391.07 421.341 1371.35 416.622C1356.82 413.151 1354.94 386.403 1380.55 389.023C1422.08 393.288 1450.6 366.983 1459.59 353.507C1464.86 345.623 1468.65 343.717 1478.89 324.603C1482.42 318.024 1482.44 309.777 1473.83 302.699C1465.23 295.621 1430.34 309.267 1420.22 306.238C1410.11 303.21 1416.78 277.46 1435.05 271.017C1453.32 264.573 1492.43 282.916 1499.67 254.909C1507.14 225.983 1485.96 209.705 1460.67 208.661C1435.38 207.629 1414.65 152.545 1416.17 139.897C1417.69 127.249 1435.64 126.25 1443.48 113.103C1451.32 99.9561 1439.15 93.2861 1426.79 97.937C1408.37 104.868 1422.02 131.378 1432.86 142.426C1456.97 167.042 1485.96 146.136 1499.61 159.612C1505.03 164.955 1508.71 187.812 1497.59 205.111C1486.46 222.421 1462.19 235.954 1449.55 230.895C1436.91 225.835 1420.72 187.415 1442.98 187.914C1465.24 188.413 1471.66 166.735 1476.1 147.724C1481.16 126.114 1454.1 105.004 1438.93 104.494C1423.76 103.983 1424.26 128.258 1442.47 127.249C1460.68 126.239 1472.03 102.372 1461.18 91.3464C1448.77 78.7324 1425.88 81.1145 1414.04 89.9852C1399.89 100.569 1403.03 110.063 1403.53 137.356C1404.04 164.66 1416.68 174.268 1435.9 177.296C1455.12 180.325 1466.24 155.551 1466.24 135.836C1466.24 116.121 1486.86 109.78 1501.53 120.737C1515.85 131.434 1521.93 153.6 1516.33 164.852C1509.54 178.499 1464.22 206.619 1448.04 199.541C1431.86 192.463 1409.61 197.499 1404.55 213.698C1399.49 229.896 1426.8 267.636 1448.55 279.762C1470.29 291.889 1469.79 261.851 1499.64 251.233C1529.48 240.616 1592.64 269.315 1588.03 291.832C1583.05 316.187 1504.7 307.736 1482.45 309.755C1460.2 311.774 1434.05 343.706 1432.88 362.332C1431.71 380.969 1494.02 419.197 1515.83 411.88C1537.64 404.564 1573.76 402.454 1590.9 404.53C1608.05 406.606 1615.47 422.634 1608.01 434.273C1588.2 465.184 1621.06 453.239 1606.75 503.037C1589.9 561.672 1567.81 564.133 1552.75 565.075C1544.07 565.619 1530.69 563.646 1521.4 554.968C1512.11 546.29 1438.06 537.703 1425.3 529.184C1412.56 520.665 1414.17 488.234 1420.75 468.008C1427.32 447.783 1459.28 363.308 1481.45 358.804C1503.62 354.289 1547.84 314.462 1550.11 279.649C1552.99 235.421 1518.43 179.213 1490.56 174.767C1473.77 172.09 1446.06 176.786 1433.4 162.13C1420.76 147.463 1409.13 163.14 1407.61 180.336C1406.09 197.522 1415.2 208.65 1424.3 232.415C1433.4 256.179 1454.91 238.098 1469.57 239.119C1484.24 240.128 1497.64 223.317 1480.44 202.082C1463.25 180.847 1487.85 150.197 1500.39 143.164C1515.27 134.803 1526.35 138.955 1537.98 156.141C1549.61 173.326 1532.53 203.602 1531.52 222.818C1530.51 242.034 1499.15 244.053 1478.42 226.357C1457.69 208.661 1410.2 218.836 1405.64 247.49C1402.62 266.502 1409.69 282.757 1424.8 292.081C1436.66 299.398 1449.28 295.609 1465.87 287.839C1477.77 282.258 1485.71 277.823 1495.67 284.731C1517.09 299.614 1539.28 374.901 1525.37 392.336C1510.06 411.529 1481.54 375.196 1457.68 382.07C1433.81 388.955 1448.61 416.259 1452.62 438.186C1456.62 460.113 1514.83 488.744 1529.49 484.706C1544.15 480.668 1579.56 440.387 1583.6 417.632C1587.66 394.877 1551.48 363.455 1524.09 359.156C1494.47 354.505 1488.02 286.013 1472.34 262.248C1456.65 238.483 1420.75 253.65 1410.13 283.994C1399.51 314.326 1425.9 343.32 1448.07 351.238C1470.23 359.156 1525.69 311.49 1532.58 282.712C1539.71 252.844 1495.1 223.827 1508.25 196.524C1521.4 169.22 1539.49 175.946 1559.72 205.269C1579.95 234.592 1562.08 267.545 1564.1 290.289C1566.12 313.033 1535.55 337.07 1509.76 338.091C1483.97 339.112 1447.55 318.875 1430.35 337.58C1413.16 356.286 1414.67 387.129 1428.33 408.874C1441.98 430.62 1451.59 407.865 1477.39 406.855C1503.18 405.846 1496.29 452.865 1502.68 474.61C1509.07 496.356 1569.07 520.767 1581.71 513.689C1594.35 506.61 1550.21 492.306 1538.08 472.58C1525.94 452.865 1524.43 420.502 1536.06 398.767C1547.69 377.022 1565.39 341.131 1556.79 330.003C1548.19 318.875 1529.03 313.895 1518.92 291.14C1508.81 268.385 1515.05 263.893 1540.1 246.072C1558.03 233.333 1585.74 247.025 1591.4 267.375C1603.87 312.205 1583.71 324.297 1576.17 335.731C1562.85 355.957 1538.07 379.041 1517.84 370.522C1497.61 362.003 1478.38 328.982 1462.2 318.364C1446.02 307.747 1429.83 315.835 1413.65 325.953C1397.47 336.06 1411.63 349.207 1413.65 370.522C1415.67 391.836 1426.8 387.208 1444.5 400.276C1462.2 413.344 1496.6 363.364 1510.76 381.571C1524.92 399.777 1467.26 443.756 1455.12 451.345C1442.98 458.933 1417.7 462.972 1413.65 433.138C1409.6 403.305 1426.29 381.571 1452.59 365.894C1478.89 350.217 1497.1 403.815 1510.25 426.57C1523.4 449.325 1602.8 431.63 1609.88 407.865C1616.96 384.1 1601.79 387.14 1581.05 378.031C1560.32 368.934 1528.67 346.077 1545.19 334.279C1558.2 325 1618.94 363.047 1622.57 330.91C1624.59 313.044 1597.36 310.401 1597.52 332.646C1597.62 348.345 1611.23 363.013 1607.57 377.759C1603.72 393.266 1581.81 398.45 1568.91 413.423C1527.95 460.953 1433.87 456.404 1422.75 483.696C1411.62 511 1453.6 497.343 1475.34 491.784C1497.1 486.226 1483.43 439.706 1468.26 425.549C1453.09 411.393 1415.16 446.274 1404.03 475.608C1392.9 504.931 1413.64 512.01 1416.67 552.96C1419.7 593.91 1424.85 589.452 1443.47 593.411C1462.09 597.359 1488.65 531.18 1468.42 515.379C1448.19 499.589 1399.64 504.421 1402.17 538.134C1404.39 567.82 1394.58 568.467 1403.18 600.319C1411.78 632.172 1504.15 594.421 1508.71 572.176C1513.26 549.931 1499.61 557.509 1465.72 545.382C1431.84 533.245 1442.96 523.138 1448.02 494.314C1453.08 465.49 1471.28 474.088 1495.05 498.364C1518.82 522.627 1504.15 534.141 1468.25 559.539C1432.34 584.937 1426.42 572.584 1421.28 588.261C1416.28 603.495 1440.08 620.874 1475.33 614.657C1508.73 608.77 1532.49 609.099 1542.09 590.394C1551.7 571.688 1523.87 577.757 1497.58 580.786C1471.28 583.814 1442.96 585.334 1435.88 552.983C1428.8 520.62 1488.47 510.512 1525.39 525.679C1562.32 540.845 1526.91 539.835 1530.95 567.139C1535.01 594.443 1530.95 593.434 1495.04 619.717C1459.13 646.011 1397.4 670.513 1398.04 637.05C1398.38 619.263 1423.33 621.951 1430.35 633.431C1435.88 642.449 1431.56 658.307 1438.9 661.62C1455.59 669.14 1474.81 654.598 1493.01 642.302C1511.22 630.005 1518.02 619.274 1504.36 605.617C1490.71 591.97 1456.09 613.636 1460.64 633.363C1465.19 653.078 1492.5 636.392 1525.37 619.717C1558.24 603.03 1557.23 582.805 1568.86 562.08C1580.5 541.356 1548.63 551.973 1516.27 541.855C1483.9 531.748 1520.32 513.541 1550.15 492.306C1580 471.071 1576.12 474.383 1599.72 468.042C1623.32 461.69 1623.7 420.241 1623.7 392.268C1623.7 373.562 1621.33 360.596 1600.73 355.673C1567.08 347.619 1562.29 359.337 1549.14 411.926C1535.99 464.503 1599.09 458.843 1596.06 501.313C1593.03 543.783 1558.24 544.396 1524.87 504.954C1491.49 465.513 1523.53 443.949 1577.14 445.321C1621.09 446.456 1574.11 495.426 1555.1 505.102C1528.3 518.748 1499.07 555.138 1573.44 590.167C1595.44 600.535 1613.14 602.928 1637.15 595.952C1652.23 591.573 1667.49 578.766 1708.96 594.942C1750.44 611.118 1775.72 603.03 1805.06 587.864C1834.39 572.698 1868.01 544.872 1936.56 576.736C1964.97 589.951 1994.98 610.846 2025.33 617.924C2055.67 625.003 2086.61 618.673 2106.89 608.827C2109.92 607.352 2117 607.727 2117 607.727" stroke="url(#paint0_linear_460_211)" stroke-width="5" stroke-miterlimit="10"/>
</g>
<defs>
<linearGradient id="paint0_linear_460_211" x1="1288" y1="48" x2="907" y2="982.5" gradientUnits="userSpaceOnUse">
<stop stop-color="#003142"/>
<stop offset="1" stop-color="#6BBB4A"/>
</linearGradient>
<clipPath id="clip0_460_211">
<rect width="1920" height="711" fill="white"/>
</clipPath>
</defs>
</svg>
